<svg xmlns="http://www.w3.org/2000/svg" width="72.724" height="74" viewBox="0 0 72.724 74"><defs><style>.a{fill:#f05565;}.b{fill:#efebde;}.c{fill:#d5d0bb;}.d{fill:#36495e;}.e{fill:#7f6e5d;}.f{fill:#26b999;}.g{fill:#fff;}</style></defs><g transform="translate(-0.5)"><g transform="translate(0.5)"><path class="a" d="M59.895,4V8H50.856V4H19.868V8H10.83V4H.5V15H70.224V4Z" transform="translate(-0.5)"/><path class="b" d="M10.83,15H.5V74H70.224V15H10.83Z" transform="translate(-0.5 0)"/><path class="c" d="M49.5,22H8.5V51H62.224V22ZM36.776,24h9.9v7h-9.9Zm9.9,16h-9.9V33h9.9ZM24.052,33h9.9v7h-9.9Zm0-9h9.9v7h-9.9ZM11.328,24h9.9v7h-9.9Zm0,9h9.9v7h-9.9Zm9.9,16h-9.9V42h9.9Zm12.724,0h-9.9V42h9.9Zm12.724,0h-9.9V42h9.9ZM59.4,49H49.5V42h9.9Zm0-9H49.5V33h9.9Zm-9.9-9V24h9.9v7Z" transform="translate(-0.5 16)"/><rect class="d" width="7" height="8" transform="translate(8)"/><rect class="d" width="7" height="8" transform="translate(54.724)"/><rect class="e" width="7" height="7" transform="translate(25.357 43.353)"/></g><g transform="translate(49.224 49)"><circle class="f" cx="12" cy="12" r="12"/><path class="g" d="M52.071,39.179a1,1,0,0,0-1.392.25l-5.6,8.04-3.949-3.242a1,1,0,1,0-1.268,1.546L44.652,49.7a1,1,0,0,0,.634.227,1.062,1.062,0,0,0,.137-.009,1,1,0,0,0,.684-.419l6.214-8.929A1,1,0,0,0,52.071,39.179Z" transform="translate(-33.5 -33)"/></g></g></svg>