<svg xmlns="http://www.w3.org/2000/svg" width="160" height="135" viewBox="0 0 160 135"><defs><style>.a{fill:#79b2ff;}.b{fill:#f9fceb;}.c{fill:#cbe558;}</style></defs><g transform="translate(0 0)"><path class="a" d="M208.638,118.906,227,133.918V207.18a6.443,6.443,0,0,1-6.443,6.443H108.442A6.443,6.443,0,0,1,102,207.18V133.918l18.363-15.012Zm0,0" transform="translate(-70.125 -81.748)"/><path class="b" d="M160.762,73.561V16.444A6.443,6.443,0,0,1,167.206,10h75.385a6.443,6.443,0,0,1,6.444,6.443V73.561l-44.137,33.3Zm0,0" transform="translate(-110.524 -6.876)"/><path class="c" d="M275.325,96.088A22.229,22.229,0,1,1,253.1,73.859,22.23,22.23,0,0,1,275.325,96.088Zm0,0" transform="translate(-158.721 -50.779)"/><path d="M184.29,49.751,167.075,35.676V9.568A9.579,9.579,0,0,0,157.505,0H132.313a3.125,3.125,0,1,0,0,6.25h25.193a3.323,3.323,0,0,1,3.319,3.318V65.034L119.813,96.215,78.8,65.034V9.567A3.323,3.323,0,0,1,82.12,6.25h25.193a3.125,3.125,0,1,0,0-6.25H82.12a9.579,9.579,0,0,0-9.569,9.568V35.676L55.335,49.751a3.124,3.124,0,0,0-1.147,2.419V86.864H40.125a3.125,3.125,0,1,0,0,6.25H54.188v32.318A9.579,9.579,0,0,0,63.756,135H175.87a9.579,9.579,0,0,0,9.568-9.568V52.17a3.124,3.124,0,0,0-1.147-2.419Zm-5.1,74.26L142.213,87.036l36.975-28.112ZM167.075,43.748l10.479,8.567-10.479,7.966Zm-47.262,59.518a3.123,3.123,0,0,0,1.892-.637l15.487-11.775,37.9,37.9H64.538l37.9-37.9,15.488,11.775a3.117,3.117,0,0,0,1.891.637ZM60.438,58.924,97.413,87.036,60.438,124.01Zm12.113,1.357L62.072,52.315l10.479-8.567Zm0,0" transform="translate(-25.438)"/><path d="M20,341.965H3.125a3.125,3.125,0,1,0,0,6.25H20a3.125,3.125,0,1,0,0-6.25Zm0,0" transform="translate(0 -235.101)"/><path d="M295.125,6.25a3.126,3.126,0,0,0,3.125-3.125,3.125,3.125,0,1,0-5.334,2.209A3.15,3.15,0,0,0,295.125,6.25Zm0,0" transform="translate(-200.75 0)"/><path d="M220.867,89.213a25.354,25.354,0,1,0,25.354-25.354A25.383,25.383,0,0,0,220.867,89.213Zm44.458,0a19.1,19.1,0,1,1-19.1-19.1A19.126,19.126,0,0,1,265.325,89.213Zm0,0" transform="translate(-151.846 -43.904)"/><path d="M274.686,124.583A3.125,3.125,0,1,0,270.267,129l5.516,5.516a3.124,3.124,0,0,0,4.419,0l9.68-9.68a3.125,3.125,0,1,0-4.42-4.419l-7.469,7.469Zm0,0" transform="translate(-185.179 -82.159)"/></g></svg>